<?xml version="1.0" standalone="no"?>
<!DOCTYPE svg PUBLIC "-//W3C//DTD SVG 20010904//EN"
 "http://www.w3.org/TR/2001/REC-SVG-20010904/DTD/svg10.dtd">
<svg version="1.0" xmlns="http://www.w3.org/2000/svg"
 width="246.000000pt" height="246.000000pt" viewBox="0 0 246.000000 246.000000"
 preserveAspectRatio="xMidYMid meet">
<metadata>
Created by potrace 1.14, written by Peter Selinger 2001-2017
</metadata>
<g transform="translate(0.000000,246.000000) scale(0.100000,-0.100000)"
fill="#000000" stroke="none">
<path d="M1210 1835 c-7 -9 -19 -14 -27 -11 -7 3 -13 2 -13 -2 0 -16 -124 -57
-141 -46 -7 4 -9 3 -6 -3 4 -6 -4 -13 -18 -15 -15 -3 -25 -1 -25 6 0 6 -4 5
-9 -2 -4 -8 -17 -13 -27 -12 -11 1 -21 1 -24 0 -9 -3 -44 -10 -72 -14 -18 -2
-28 1 -28 9 0 8 9 10 26 7 44 -8 14 30 -50 62 -47 24 -63 27 -106 22 -49 -6
-81 -19 -106 -42 -14 -13 -153 -12 -173 1 -10 6 -12 4 -6 -5 6 -10 3 -12 -13
-8 -12 4 -22 2 -22 -3 0 -5 -13 -9 -30 -9 -16 0 -30 -4 -30 -10 0 -5 -9 -10
-20 -10 -11 0 -20 -5 -20 -11 0 -5 -4 -7 -10 -4 -5 3 -10 1 -10 -5 0 -6 -4 -9
-9 -6 -5 3 -12 -1 -15 -10 -3 -8 -11 -12 -16 -9 -6 4 -9 1 -8 -6 2 -7 -2 -13
-8 -14 -14 0 -38 -25 -47 -48 -4 -11 -12 -15 -19 -11 -7 4 -10 4 -6 -1 4 -4 1
-20 -7 -36 -19 -36 -19 -36 5 -42 11 -3 18 -1 14 4 -3 5 4 9 15 9 12 0 21 -6
21 -12 0 -9 4 -8 10 2 9 13 10 13 10 0 0 -13 1 -13 10 0 8 13 10 12 10 -3 0
-10 4 -16 8 -13 14 8 54 -25 48 -40 -3 -8 -2 -13 2 -13 19 3 25 -2 12 -11 -10
-6 -11 -10 -3 -10 10 0 10 -6 1 -25 -6 -14 -16 -25 -21 -25 -6 0 -8 -3 -4 -6
3 -4 -1 -13 -9 -22 -14 -13 -17 -13 -25 -1 -8 11 -9 10 -7 -6 2 -12 -2 -19 -9
-18 -7 2 -13 -1 -13 -6 0 -14 -38 -20 -44 -7 -2 6 -5 4 -5 -4 -1 -12 -13 -15
-55 -14 l-55 2 12 -26 c6 -15 19 -42 29 -60 10 -18 16 -37 13 -43 -4 -5 -2 -9
3 -9 5 0 9 -6 9 -12 1 -22 14 -81 19 -90 3 -4 -2 -11 -10 -14 -9 -3 -16 -10
-16 -16 0 -5 5 -6 12 -2 8 5 9 0 4 -17 -4 -13 -9 -32 -11 -42 -5 -21 -40 -82
-64 -111 -9 -11 -11 -17 -5 -13 6 3 18 -3 27 -13 11 -13 12 -20 4 -24 -7 -2
-4 -5 6 -5 10 -1 15 -5 12 -11 -4 -6 1 -7 11 -3 12 4 15 3 10 -5 -4 -7 -3 -12
2 -12 15 0 52 -37 45 -44 -4 -4 0 -4 9 -1 10 4 27 0 40 -9 12 -9 30 -16 40
-16 10 0 18 -4 18 -9 0 -5 7 -12 16 -15 9 -3 12 -2 9 5 -8 13 44 1 64 -15 11
-8 13 -8 7 2 -4 7 -1 12 8 12 9 0 16 -6 16 -12 0 -9 4 -8 10 2 9 13 10 13 10
0 0 -12 2 -12 9 -1 6 9 10 10 16 2 5 -9 10 -9 21 0 8 6 23 9 34 6 12 -3 24 1
30 11 5 10 10 12 10 5 0 -7 5 -13 10 -13 6 0 25 -15 44 -33 30 -30 37 -33 87
-30 30 2 62 5 72 7 9 2 17 -1 17 -7 0 -8 3 -8 8 -2 4 6 14 10 22 10 8 -1 22 2
31 6 9 5 21 3 27 -3 8 -8 15 -8 27 2 11 9 15 9 15 1 0 -7 5 -9 11 -5 6 3 57 9
113 11 133 6 140 6 144 -7 2 -5 8 -10 13 -10 6 0 19 -9 30 -19 27 -25 56 -32
72 -17 53 51 72 57 187 54 60 -2 110 -7 110 -12 0 -5 7 -3 15 4 8 7 15 8 15 3
0 -13 43 -11 52 2 5 6 8 6 8 -1 0 -7 21 -11 55 -10 30 1 55 -1 55 -5 0 -7 32
-5 46 3 5 4 16 3 23 -1 20 -13 60 0 66 20 4 11 10 17 14 15 4 -3 14 4 21 15
18 23 38 24 62 2 18 -16 18 -16 12 0 -8 21 0 22 20 1 9 -8 16 -11 16 -5 0 6 7
11 16 11 8 0 13 -4 10 -8 -3 -5 1 -9 9 -9 8 0 12 4 9 9 -3 4 -1 8 5 8 5 0 13
-5 16 -10 5 -8 11 -7 21 1 8 6 23 9 34 6 11 -3 23 -1 26 4 3 5 10 7 15 4 5 -4
9 -1 9 5 0 8 9 10 24 6 17 -4 28 -1 34 10 5 8 16 16 25 18 9 1 24 11 33 22 8
10 13 12 9 4 -4 -8 3 -4 15 10 12 14 19 18 15 10 -6 -13 -5 -13 7 0 8 8 20 21
28 29 13 12 13 13 0 7 -9 -5 -9 -2 2 7 10 8 15 17 11 20 -3 4 -1 7 5 7 17 0
15 26 -4 44 -8 9 -12 21 -8 27 4 7 3 9 -3 6 -12 -7 -35 47 -26 57 4 3 1 6 -7
6 -10 0 -10 4 1 17 8 9 9 14 3 10 -15 -9 -24 36 -12 57 6 11 5 16 -3 16 -8 0
-8 4 1 15 7 8 9 15 4 15 -5 0 -2 5 6 10 13 8 13 10 0 10 -11 0 -11 3 -2 12 7
7 12 22 12 35 0 13 6 26 14 29 8 3 13 11 10 19 -3 7 2 20 11 29 9 9 13 16 9
16 -3 0 -1 6 5 14 11 13 3 15 -52 15 -89 0 -158 37 -184 100 -13 30 -12 35 4
54 10 11 12 17 5 13 -11 -7 -12 -4 -3 13 12 22 27 30 16 9 -4 -7 0 -5 8 4 8
10 17 15 20 11 4 -3 7 -1 7 6 0 8 8 11 20 8 11 -3 23 0 27 5 4 7 1 8 -7 3 -9
-5 -11 -4 -6 3 9 15 12 15 30 -4 9 -8 16 -11 16 -5 0 6 5 11 11 11 5 0 7 -6 3
-12 -6 -9 -3 -9 9 1 15 12 15 15 0 45 -10 17 -16 35 -15 39 1 5 -2 5 -8 2 -7
-4 -14 2 -17 13 -2 11 -14 22 -24 25 -11 3 -18 11 -17 17 2 7 -6 14 -16 16
-10 1 -22 7 -25 11 -7 11 -96 53 -125 60 -37 9 -160 10 -183 2 -14 -5 -23 -5
-23 1 0 15 -78 51 -125 57 -50 6 -125 -23 -157 -60 l-20 -22 36 -3 c20 -2 34
-7 31 -12 -3 -5 -15 -7 -28 -5 -54 9 -114 16 -134 16 -13 -1 -23 3 -23 7 0 4
-10 9 -22 9 -48 3 -68 8 -68 16 0 5 -7 7 -15 3 -8 -3 -15 -2 -15 3 0 4 -6 8
-12 8 -7 0 -30 7 -51 16 -20 9 -40 16 -44 16 -3 -1 -9 4 -13 11 -5 8 -11 6
-20 -5z m-525 -57 c46 -21 27 -41 -42 -44 -37 -1 -60 2 -57 8 3 5 12 7 20 4 8
-3 11 0 7 10 -3 7 -10 14 -17 15 -12 1 31 16 51 18 7 1 24 -4 38 -11z m1184 2
c3 0 -4 -7 -15 -15 -11 -8 -14 -15 -6 -15 6 0 12 -4 12 -10 0 -11 -28 -9 -47
3 -6 4 -15 3 -18 -3 -5 -8 -11 -7 -21 1 -11 9 -14 9 -14 0 0 -7 -4 -10 -10 -6
-5 3 -7 12 -4 19 8 22 46 35 84 31 19 -2 37 -4 39 -5z"/>
</g>
</svg>
